# xmcd
#
# Track frame offsets:
#	150
#	11668
#	22386
#	36920
#	50508
#	66738
#	82716
#	96704
#	110779
#	120216
#	136382
#	148760
#	162315
#	183863
#	198271
#
# Disc length: 2835 seconds
#
# Revision: 1
# Processed by: cddbd v1.5.2PL0 Copyright (c) Steve Scherf et al.
# Submitted via: audiograbber 1.83.01
#
DISCID=db0b110f
DTITLE=Various Artist - E-1 17
DYEAR=1900
DGENRE=
TTITLE0=HONEYCOMB
TTITLE1=DEVIL WITH A BULE DRESS ON
TTITLE2=ARE YOU LONESOME TONIGHT
TTITLE3=EVERYBODY LOVES SOMEBODY
TTITLE4=FEVER
TTITLE5=I LEFT MY HEART IN SAN FRANCISCO
TTITLE6=CAN'T HELP FALLING IN LOVE
TTITLE7=HEAT WAVE
TTITLE8=HELLO DOLLY
TTITLE9=ENBRACEABLE YOU
TTITLE10=I'M SORRY
TTITLE11=LOVE ME TENDER
TTITLE12=MY WAY
TTITLE13=LEADER OF THE PACK
TTITLE14=STAND BY ME
EXTD=
EXTT0=
EXTT1=
EXTT2=
EXTT3=
EXTT4=
EXTT5=
EXTT6=
EXTT7=
EXTT8=
EXTT9=
EXTT10=
EXTT11=
EXTT12=
EXTT13=
EXTT14=
PLAYORDER=
